name rise49.5252peak65.1548fall88.8305.mot
datacolumns 19
datarows 23
range 6.53497500000000 6.57164000000000
endheader
time	ground_force1_vx	ground_force1_vy	ground_force1_vz	ground_force1_px	ground_force1_py	ground_force1_pz	ground_force2_vx	ground_force2_vy	ground_force2_vz	ground_force2_px	ground_force2_py	ground_force2_pz	ground_torque1_x	ground_torque1_y	ground_torque1_z	ground_torque2_x	ground_torque2_y	ground_torque2_z	
6.53497500000000	-14.24516700000000	43.49440300000000	-10.77571800000000	0.29465200000000	0.00000000000000	0.10342700000000	-44.46608800000000	791.96118100000001	-52.19195200000000	0.15519300000000	0.00000000000000	-0.08639600000000	0.00000000000000	-5.78359300000000	0.00000000000000	0.00000000000000	-23.47061600000000	0.00000000000000	
6.53663700000000	-15.81106000000000	51.02498300000000	-12.14273200000000	0.30123400000000	0.00000000000000	0.10396400000000	-45.15686200000000	788.63209600000005	-51.75737100000000	0.15427000000000	0.00000000000000	-0.08631500000000	0.00000000000000	-6.63366900000000	0.00000000000000	0.00000000000000	-23.37620600000000	0.00000000000000	
6.53830100000000	-17.16275400000000	58.65824100000000	-13.39369400000000	0.30735000000000	0.00000000000000	0.10444500000000	-45.86482200000000	785.21163300000001	-51.30686300000000	0.15335300000000	0.00000000000000	-0.08623100000000	0.00000000000000	-7.44331400000000	0.00000000000000	0.00000000000000	-23.28300100000000	0.00000000000000	
6.53996900000000	-18.26378600000000	66.29488400000000	-14.49998300000000	0.31307200000000	0.00000000000000	0.10488000000000	-46.58939300000000	781.69902300000001	-50.84034300000000	0.15244300000000	0.00000000000000	-0.08614400000000	0.00000000000000	-8.19428600000000	0.00000000000000	0.00000000000000	-23.19094300000000	0.00000000000000	
6.54163900000000	-19.09219300000000	73.85888199999999	-15.44236700000000	0.31845600000000	0.00000000000000	0.10527700000000	-47.32991200000000	778.09334500000000	-50.35773400000000	0.15154200000000	0.00000000000000	-0.08605300000000	0.00000000000000	-8.87297400000000	0.00000000000000	0.00000000000000	-23.09995300000000	0.00000000000000	
6.54330600000000	-19.64040100000000	81.29985000000001	-16.21116700000000	0.32354700000000	0.00000000000000	0.10564200000000	-48.08562400000000	774.39352899999994	-49.85896700000000	0.15065100000000	0.00000000000000	-0.08595900000000	0.00000000000000	-9.47074700000000	0.00000000000000	0.00000000000000	-23.00993600000000	0.00000000000000	
6.54497000000000	-19.91396700000000	88.59292499999999	-16.80560700000000	0.32838000000000	0.00000000000000	0.10597900000000	-48.85568500000000	770.59835799999996	-49.34398200000000	0.14977100000000	0.00000000000000	-0.08586100000000	0.00000000000000	-9.98383700000000	0.00000000000000	0.00000000000000	-22.92077900000000	0.00000000000000	
6.54663500000000	-19.92944700000000	95.73655599999999	-17.23255100000000	0.33298600000000	0.00000000000000	0.10629300000000	-49.63915600000000	766.70647599999995	-48.81273100000000	0.14890500000000	0.00000000000000	-0.08575900000000	0.00000000000000	-10.41285500000000	0.00000000000000	0.00000000000000	-22.83234900000000	0.00000000000000	
6.54830400000000	-19.71173300000000	102.74876399999999	-17.50483500000000	0.33738900000000	0.00000000000000	0.10658700000000	-50.43501000000000	762.71638800000005	-48.26518300000000	0.14805200000000	0.00000000000000	-0.08565400000000	0.00000000000000	-10.76201500000000	0.00000000000000	0.00000000000000	-22.74449900000000	0.00000000000000	
6.54996800000000	-19.29116500000000	109.66244100000000	-17.63939500000000	0.34160800000000	0.00000000000000	0.10686300000000	-51.24212700000000	758.62647300000003	-47.70132000000000	0.14721600000000	0.00000000000000	-0.08554400000000	0.00000000000000	-11.03820900000000	0.00000000000000	0.00000000000000	-22.65706200000000	0.00000000000000	
6.55163400000000	-18.70068900000000	116.52024299999999	-17.65539000000000	0.34566100000000	0.00000000000000	0.10712500000000	-52.05929800000000	754.43498199999999	-47.12114700000000	0.14639600000000	0.00000000000000	-0.08543100000000	0.00000000000000	-11.25000600000000	0.00000000000000	0.00000000000000	-22.56985700000000	0.00000000000000	
6.55330500000000	-17.97329800000000	123.36957000000000	-17.57247400000000	0.34956100000000	0.00000000000000	0.10737200000000	-52.88522600000000	750.14005399999996	-46.52468600000000	0.14559500000000	0.00000000000000	-0.08531300000000	0.00000000000000	-11.40669300000000	0.00000000000000	0.00000000000000	-22.48268600000000	0.00000000000000	
6.55497200000000	-17.13989500000000	130.25801799999999	-17.40932300000000	0.35332000000000	0.00000000000000	0.10760900000000	-53.71852200000000	745.73972000000003	-45.91198500000000	0.14481300000000	0.00000000000000	-0.08519100000000	0.00000000000000	-11.51742100000000	0.00000000000000	0.00000000000000	-22.39533700000000	0.00000000000000	
6.55664000000000	-16.22768000000000	137.22957500000001	-17.18249100000000	0.35694900000000	0.00000000000000	0.10783500000000	-54.55771400000000	741.23191599999996	-45.28311600000000	0.14405200000000	0.00000000000000	-0.08506400000000	0.00000000000000	-11.59050100000000	0.00000000000000	0.00000000000000	-22.30758000000000	0.00000000000000	
6.55831500000000	-15.25910400000000	144.32172399999999	-16.90562900000000	0.36045400000000	0.00000000000000	0.10805200000000	-55.40124600000000	736.61449100000004	-44.63817700000000	0.14331300000000	0.00000000000000	-0.08493300000000	0.00000000000000	-11.63289600000000	0.00000000000000	0.00000000000000	-22.21917600000000	0.00000000000000	
6.55996600000000	-14.25134700000000	151.56352200000001	-16.58906900000000	0.36384400000000	0.00000000000000	0.10826100000000	-56.24747700000000	731.88522000000000	-43.97729900000000	0.14259700000000	0.00000000000000	-0.08479800000000	0.00000000000000	-11.64989300000000	0.00000000000000	0.00000000000000	-22.12987000000000	0.00000000000000	
6.56163600000000	-13.21628800000000	158.97461899999999	-16.23971600000000	0.36712500000000	0.00000000000000	0.10846300000000	-57.09469100000000	727.04181400000004	-43.30064100000000	0.14190500000000	0.00000000000000	-0.08465800000000	0.00000000000000	-11.64497400000000	0.00000000000000	0.00000000000000	-22.03939500000000	0.00000000000000	
6.56330900000000	-12.16086700000000	166.56512300000000	-15.86123500000000	0.37030100000000	0.00000000000000	0.10865800000000	-57.94109100000000	722.08194100000003	-42.60839600000000	0.14123700000000	0.00000000000000	-0.08451400000000	0.00000000000000	-11.61984400000000	0.00000000000000	0.00000000000000	-21.94747300000000	0.00000000000000	
6.56496500000000	-11.08774800000000	174.33616300000000	-15.45443500000000	0.37337700000000	0.00000000000000	0.10884800000000	-58.78481100000000	717.00323300000002	-41.90079200000000	0.14059600000000	0.00000000000000	-0.08436500000000	0.00000000000000	-11.57459200000000	0.00000000000000	0.00000000000000	-21.85381500000000	0.00000000000000	
6.56663300000000	-9.99616500000000	182.28099100000000	-15.01780400000000	0.37635700000000	0.00000000000000	0.10903200000000	-59.62391400000000	711.80330400000003	-41.17809300000000	0.13998100000000	0.00000000000000	-0.08421100000000	0.00000000000000	-11.50795600000000	0.00000000000000	0.00000000000000	-21.75812500000000	0.00000000000000	
6.56830500000000	-8.88287900000000	190.38642300000001	-14.54811600000000	0.37924300000000	0.00000000000000	0.10921100000000	-60.45640000000000	706.47977100000003	-40.44059800000000	0.13939300000000	0.00000000000000	-0.08405300000000	0.00000000000000	-11.41763900000000	0.00000000000000	0.00000000000000	-21.66009700000000	0.00000000000000	
6.56997300000000	-7.74311800000000	198.63447199999999	-14.04106400000000	0.38203800000000	0.00000000000000	0.10938700000000	-61.28020800000000	701.03026799999998	-39.68864600000000	0.13883400000000	0.00000000000000	-0.08388900000000	0.00000000000000	-11.30065900000000	0.00000000000000	0.00000000000000	-21.55941600000000	0.00000000000000	
6.57164000000000	-6.57147300000000	207.00399999999999	-13.49185600000000	0.38474400000000	0.00000000000000	0.10955800000000	-62.09322100000000	695.45246499999996	-38.92261400000000	0.13830300000000	0.00000000000000	-0.08372100000000	0.00000000000000	-11.15369000000000	0.00000000000000	0.00000000000000	-21.45576600000000	0.00000000000000	
